<svg xmlns="http://www.w3.org/2000/svg" xmlns:xlink="http://www.w3.org/1999/xlink" xmlns:lucid="lucid" width="838" height="570"><g transform="translate(-460 -310)" lucid:page-tab-id="0_0"><path d="M0 0h1760v1360H0z" fill="#fff"/><path d="M635.68 346c0-3.3 2.7-6 6-6h476.03c3.32 0 6 2.7 6 6v48c0 3.3-2.68 6-6 6H641.7c-3.3 0-6-2.7-6-6z" stroke="#000" stroke-opacity="0" stroke-width="2" fill="#6e757d"/><use xlink:href="#a" transform="matrix(1,0,0,1,640.68141051153,345) translate(38.141975308641975 30.27777777777778)"/><use xlink:href="#b" transform="matrix(1,0,0,1,640.68141051153,345) translate(102.15432098765432 30.27777777777778)"/><use xlink:href="#c" transform="matrix(1,0,0,1,640.68141051153,345) translate(121.84567901234567 30.27777777777778)"/><use xlink:href="#d" transform="matrix(1,0,0,1,640.68141051153,345) translate(208.08024691358023 30.27777777777778)"/><use xlink:href="#e" transform="matrix(1,0,0,1,640.68141051153,345) translate(245.05555555555554 30.27777777777778)"/><use xlink:href="#f" transform="matrix(1,0,0,1,640.68141051153,345) translate(264.7469135802469 30.27777777777778)"/><use xlink:href="#g" transform="matrix(1,0,0,1,640.68141051153,345) translate(348.45061728395063 30.27777777777778)"/><path d="M500.67 479.64c0-2.2 1.8-4 4-4h339c2.2 0 4 1.8 4 4V776c0 2.2-1.8 4-4 4h-339c-2.2 0-4-1.8-4-4z" stroke="#666" stroke-width="2" fill="#fff"/><path d="M500.67 512.15h347" stroke="#666" stroke-width="2" fill="none"/><path d="M500.7 513.15h-1.03v-2h1.02zM848.66 513.15h-1.02v-2h1.02z" fill="#666"/><path d="M520 486.9c0 2.94-2.4 5.32-5.33 5.32-2.95 0-5.34-2.38-5.34-5.33 0-2.96 2.4-5.34 5.34-5.34s5.33 2.38 5.33 5.33zM538.5 486.9c0 2.94-2.4 5.32-5.33 5.32-2.95 0-5.34-2.38-5.34-5.33 0-2.96 2.4-5.34 5.34-5.34s5.33 2.38 5.33 5.33zM557 486.9c0 2.94-2.4 5.32-5.33 5.32-2.95 0-5.34-2.38-5.34-5.33 0-2.96 2.4-5.34 5.34-5.34s5.33 2.38 5.33 5.33z" stroke="#666" stroke-width="2" fill="#d2d3d5"/><path d="M915.83 491.6c0-2.22 1.8-4 4-4h339c2.2 0 4 1.78 4 4V686.4c0 2.2-1.8 4-4 4h-339c-2.2 0-4-1.8-4-4z" stroke="#666" stroke-width="2" fill="#fff"/><path d="M917.83 511.92h345M917.86 511.92h-1.03" stroke="#666" stroke-width="2" fill="none"/><path d="M1263.83 512.92h-1.02v-2h1.03z" fill="#666"/><path d="M935.17 498.84c0 2.95-2.4 5.33-5.34 5.33s-5.33-2.38-5.33-5.33 2.4-5.33 5.33-5.33c2.95 0 5.34 2.4 5.34 5.34zM953.67 498.84c0 2.95-2.4 5.33-5.34 5.33s-5.33-2.38-5.33-5.33 2.4-5.33 5.33-5.33c2.95 0 5.34 2.4 5.34 5.34zM972.17 498.84c0 2.95-2.4 5.33-5.34 5.33s-5.33-2.38-5.33-5.33 2.4-5.33 5.33-5.33c2.95 0 5.34 2.4 5.34 5.34z" stroke="#666" stroke-width="2" fill="#d2d3d5"/><path d="M516.6 533.56c0-2.2 1.8-4 4-4H616c2.2 0 4 1.8 4 4v2.67c0 2.2-1.8 4-4 4h-95.4c-2.2 0-4-1.8-4-4zM1124.33 594c0 22.33-18.65 40.4-41.66 40.4-23 0-41.67-18.07-41.67-40.4 0-22.3 18.66-40.4 41.67-40.4 23 0 41.66 18.1 41.66 40.4z" stroke="#666" stroke-width="2" fill="#fff"/><path d="M1097.33 580.87l-18.5 21.25-10.5-10.38-3.2 3.1 13.6 12.7 21.46-23.94z" stroke="#000" stroke-opacity="0" stroke-width="2" fill="#666"/><path d="M554.17 780h240v60h-240z" stroke="#000" stroke-opacity="0" stroke-width="2" fill="#fff" fill-opacity="0"/><use xlink:href="#h" transform="matrix(1,0,0,1,559.1655690181794,785) translate(90.85185185185185 29.84722222222222)"/><path d="M988.6 690.42h240v60h-240z" stroke="#000" stroke-opacity="0" stroke-width="2" fill="#fff" fill-opacity="0"/><use xlink:href="#i" transform="matrix(1,0,0,1,993.6038941377844,695.4186867790872) translate(52.87654320987653 29.84722222222222)"/><use xlink:href="#j" transform="matrix(1,0,0,1,993.6038941377844,695.4186867790872) translate(128.7283950617284 29.84722222222222)"/><path d="M853.15 568.6h38.72v-10.25l18.48 20.53-18.48 20.53v-10.25h-38.72z" stroke="#000" stroke-opacity="0" stroke-width="2" fill="#bcbdbf"/><path d="M516.6 514.26h82.82v13.6H516.6z" stroke="#000" stroke-opacity="0" stroke-width="2" fill="#fff" fill-opacity="0"/><use xlink:href="#k" transform="matrix(1,0,0,1,521.5948169540169,519.2649347146191) translate(0 7.288888888888889)"/><use xlink:href="#l" transform="matrix(1,0,0,1,521.5948169540169,519.2649347146191) translate(26.77654320987654 7.288888888888889)"/><path d="M517.68 562.08c0-2.2 1.8-4 4-4h95.4c2.22 0 4 1.8 4 4v2.67c0 2.2-1.78 4-4 4h-95.4c-2.2 0-4-1.8-4-4z" stroke="#666" stroke-width="2" fill="#fff"/><path d="M517.68 542.8h82.83v13.58H517.7z" stroke="#000" stroke-opacity="0" stroke-width="2" fill="#fff" fill-opacity="0"/><use xlink:href="#m" transform="matrix(1,0,0,1,522.6830688242081,547.7886043510443) translate(0 7.288888888888889)"/><path d="M517.68 590.6c0-2.2 1.8-4 4-4h95.4c2.22 0 4 1.8 4 4v2.67c0 2.2-1.78 4-4 4h-95.4c-2.2 0-4-1.8-4-4z" stroke="#666" stroke-width="2" fill="#fff"/><path d="M517.68 571.3h82.83v13.6H517.7z" stroke="#000" stroke-opacity="0" stroke-width="2" fill="#fff" fill-opacity="0"/><use xlink:href="#n" transform="matrix(1,0,0,1,522.6830688242082,576.3122739874696) translate(0 7.288888888888889)"/><path d="M517.68 619.13c0-2.2 1.8-4 4-4h95.4c2.22 0 4 1.8 4 4v2.67c0 2.2-1.78 4-4 4h-95.4c-2.2 0-4-1.8-4-4z" stroke="#666" stroke-width="2" fill="#fff"/><path d="M517.68 600H620v13.42H517.68z" stroke="#000" stroke-opacity="0" stroke-width="2" fill="#fff" fill-opacity="0"/><use xlink:href="#o" transform="matrix(1,0,0,1,522.6830688242082,605.0026102905614) translate(0 7.288888888888889)"/><use xlink:href="#p" transform="matrix(1,0,0,1,522.6830688242082,605.0026102905614) translate(21.74012345679012 7.288888888888889)"/><use xlink:href="#q" transform="matrix(1,0,0,1,522.6830688242082,605.0026102905614) translate(34.39444444444444 7.288888888888889)"/><path d="M517.68 647.65c0-2.2 1.8-4 4-4h95.4c2.22 0 4 1.8 4 4v2.67c0 2.2-1.78 4-4 4h-95.4c-2.2 0-4-1.8-4-4z" stroke="#666" stroke-width="2" fill="#fff"/><path d="M517.68 628.36h82.83v13.6H517.7z" stroke="#000" stroke-opacity="0" stroke-width="2" fill="#fff" fill-opacity="0"/><use xlink:href="#r" transform="matrix(1,0,0,1,522.6830688242082,633.35961326032) translate(0 7.288888888888889)"/><path d="M517.68 656.88h82.83v13.6H517.7z" stroke="#000" stroke-opacity="0" stroke-width="2" fill="#fff" fill-opacity="0"/><use xlink:href="#s" transform="matrix(1,0,0,1,522.6830688242082,661.8832828967452) translate(0 7.288888888888889)"/><path d="M517.68 704.7c0-2.2 1.8-4 4-4h95.4c2.22 0 4 1.8 4 4v2.67c0 2.2-1.78 4-4 4h-95.4c-2.2 0-4-1.8-4-4z" stroke="#666" stroke-width="2" fill="#fff"/><path d="M517.68 685.4h82.83V699H517.7z" stroke="#000" stroke-opacity="0" stroke-width="2" fill="#fff" fill-opacity="0"/><use xlink:href="#t" transform="matrix(1,0,0,1,522.6830688242082,690.4069525331704) translate(0 7.288888888888889)"/><path d="M530.67 680.07c0 2.95-2.4 5.34-5.34 5.34s-5.33-2.38-5.33-5.33c0-2.94 2.4-5.33 5.33-5.33 2.95 0 5.34 2.4 5.34 5.33zM549.17 680.07c0 2.95-2.4 5.34-5.34 5.34s-5.33-2.38-5.33-5.33c0-2.94 2.4-5.33 5.33-5.33 2.95 0 5.34 2.4 5.34 5.33zM567.67 680.07c0 2.95-2.4 5.34-5.34 5.34s-5.33-2.38-5.33-5.33c0-2.94 2.4-5.33 5.33-5.33 2.95 0 5.34 2.4 5.34 5.33z" stroke="#666" stroke-width="2" fill="#d2d3d5"/><path d="M635.68 704.7c0-2.2 1.8-4 4-4h95.4c2.22 0 4 1.8 4 4v2.67c0 2.2-1.78 4-4 4h-95.4c-2.2 0-4-1.8-4-4z" stroke="#666" stroke-width="2" fill="#fff"/><path d="M635.68 685.4h82.83V699H635.7z" stroke="#000" stroke-opacity="0" stroke-width="2" fill="#fff" fill-opacity="0"/><g><use xlink:href="#u" transform="matrix(1,0,0,1,640.68141051153,690.4069525331704) translate(0 7.288888888888889)"/><use xlink:href="#v" transform="matrix(1,0,0,1,640.68141051153,690.4069525331704) translate(42.391975308641975 7.288888888888889)"/></g><path d="M517.68 612.2h82.83v13.6H517.7z" stroke="#000" stroke-opacity="0" stroke-width="2" fill="#fff" fill-opacity="0"/><g><use xlink:href="#w" transform="matrix(1,0,0,1,522.6830688242081,617.2105708056681) translate(0 5.509765625)"/></g><path d="M517.68 583.7h82.83v13.57H517.7z" stroke="#000" stroke-opacity="0" stroke-width="2" fill="#fff" fill-opacity="0"/><g><use xlink:href="#x" transform="matrix(1,0,0,1,522.6830688242082,588.6869011692429) translate(0 5.509765625)"/></g><path d="M517.68 726.66h70.95v24.23h-70.95z" stroke="#000" stroke-opacity="0" stroke-width="2" fill="#a5a7aa"/><defs><path fill="#fff" d="M230 0l2-204L168 0h-37L68-204 70 0H24v-248h70l56 185 57-185h69V0h-46" id="y"/><path fill="#fff" d="M185-48c-13 30-37 53-82 52C43 2 14-33 14-96s30-98 90-98c62 0 83 45 84 108H66c0 31 8 55 39 56 18 0 30-7 34-22zm-45-69c5-46-57-63-70-21-2 6-4 13-4 21h74" id="z"/><path fill="#fff" d="M115-3C79 11 28 4 28-45v-112H4v-33h27l15-45h31v45h36v33H77v99c-1 23 16 31 38 25v30" id="A"/><path fill="#fff" d="M133-34C117-15 103 5 69 4 32 3 11-16 11-54c-1-60 55-63 116-61 1-26-3-47-28-47-18 1-26 9-28 27l-52-2c7-38 36-58 82-57s74 22 75 68l1 82c-1 14 12 18 25 15v27c-30 8-71 5-69-32zm-48 3c29 0 43-24 42-57-32 0-66-3-65 30 0 17 8 27 23 27" id="B"/><path fill="#fff" d="M35-132v-50h50v50H35zM35 0v-49h50V0H35" id="C"/><g id="a"><use transform="matrix(0.06172839506172839,0,0,0.06172839506172839,0,0)" xlink:href="#y"/><use transform="matrix(0.06172839506172839,0,0,0.06172839506172839,18.456790123456788,0)" xlink:href="#z"/><use transform="matrix(0.06172839506172839,0,0,0.06172839506172839,30.80246913580247,0)" xlink:href="#A"/><use transform="matrix(0.06172839506172839,0,0,0.06172839506172839,38.148148148148145,0)" xlink:href="#B"/><use transform="matrix(0.06172839506172839,0,0,0.06172839506172839,50.49382716049382,0)" xlink:href="#C"/></g><path fill="#fff" d="M110-194c64 0 96 36 96 99 0 64-35 99-97 99-61 0-95-36-95-99 0-62 34-99 96-99zm-1 164c35 0 45-28 45-65 0-40-10-65-43-65-34 0-45 26-45 65 0 36 10 65 43 65" id="D"/><use transform="matrix(0.06172839506172839,0,0,0.06172839506172839,0,0)" xlink:href="#D" id="b"/><path fill="#fff" d="M85 4C-2 5 27-109 22-190h50c7 57-23 150 33 157 60-5 35-97 40-157h50l1 190h-47c-2-12 1-28-3-38-12 25-28 42-61 42" id="E"/><path fill="#fff" d="M137-138c1-29-70-34-71-4 15 46 118 7 119 86 1 83-164 76-172 9l43-7c4 19 20 25 44 25 33 8 57-30 24-41C81-84 22-81 20-136c-2-80 154-74 161-7" id="F"/><path fill="#fff" d="M132-34C116-15 102 5 68 4 31 3 10-16 10-54c-1-60 55-63 116-61 1-26-3-47-28-47-18 1-26 9-28 27l-52-2c7-38 36-58 82-57s74 22 75 68l1 82c-1 14 12 18 25 15v27c-30 8-71 5-69-32zm-48 3c29 0 43-24 42-57-32 0-66-3-65 30 0 17 8 27 23 27zM66-208v-5l45-51h45v8l-60 48H66" id="G"/><path fill="#fff" d="M135-150c-39-12-60 13-60 57V0H25l-1-190h47c2 13-1 29 3 40 6-28 27-53 61-41v41" id="H"/><path fill="#fff" d="M25-224v-37h50v37H25zM25 0v-190h50V0H25" id="I"/><g id="c"><use transform="matrix(0.06172839506172839,0,0,0.06172839506172839,0,0)" xlink:href="#E"/><use transform="matrix(0.06172839506172839,0,0,0.06172839506172839,13.518518518518517,0)" xlink:href="#F"/><use transform="matrix(0.06172839506172839,0,0,0.06172839506172839,25.864197530864196,0)" xlink:href="#E"/><use transform="matrix(0.06172839506172839,0,0,0.06172839506172839,39.382716049382715,0)" xlink:href="#G"/><use transform="matrix(0.06172839506172839,0,0,0.06172839506172839,51.72839506172839,0)" xlink:href="#H"/><use transform="matrix(0.06172839506172839,0,0,0.06172839506172839,60.37037037037037,0)" xlink:href="#I"/><use transform="matrix(0.06172839506172839,0,0,0.06172839506172839,66.5432098765432,0)" xlink:href="#D"/></g><path fill="#fff" d="M121-226c-27-7-43 5-38 36h38v33H83V0H34v-157H6v-33h28c-9-59 32-81 87-68v32" id="J"/><path fill="#fff" d="M12 0v-35l95-120H19v-35h142v35L67-36h103V0H12" id="K"/><g id="d"><use transform="matrix(0.06172839506172839,0,0,0.06172839506172839,0,0)" xlink:href="#J"/><use transform="matrix(0.06172839506172839,0,0,0.06172839506172839,7.345679012345679,0)" xlink:href="#B"/><use transform="matrix(0.06172839506172839,0,0,0.06172839506172839,19.691358024691358,0)" xlink:href="#K"/></g><use transform="matrix(0.06172839506172839,0,0,0.06172839506172839,0,0)" xlink:href="#D" id="e"/><path fill="#fff" d="M135-194c53 0 70 44 70 98 0 56-19 98-73 100-31 1-45-17-59-34 3 33 2 69 2 105H25l-1-265h48c2 10 0 23 3 31 11-24 29-35 60-35zM114-30c33 0 39-31 40-66 0-38-9-64-40-64-56 0-55 130 0 130" id="L"/><path fill="#fff" d="M110-194c64 0 96 36 96 99 0 64-35 99-97 99-61 0-95-36-95-99 0-62 34-99 96-99zm-1 164c35 0 45-28 45-65 0-40-10-65-43-65-34 0-45 26-45 65 0 36 10 65 43 65zM81-208v-5l45-51h45v8l-60 48H81" id="M"/><g id="f"><use transform="matrix(0.06172839506172839,0,0,0.06172839506172839,0,0)" xlink:href="#L"/><use transform="matrix(0.06172839506172839,0,0,0.06172839506172839,13.518518518518517,0)" xlink:href="#H"/><use transform="matrix(0.06172839506172839,0,0,0.06172839506172839,22.160493827160494,0)" xlink:href="#M"/><use transform="matrix(0.06172839506172839,0,0,0.06172839506172839,35.67901234567901,0)" xlink:href="#L"/><use transform="matrix(0.06172839506172839,0,0,0.06172839506172839,49.19753086419753,0)" xlink:href="#H"/><use transform="matrix(0.06172839506172839,0,0,0.06172839506172839,57.839506172839506,0)" xlink:href="#I"/><use transform="matrix(0.06172839506172839,0,0,0.06172839506172839,64.01234567901234,0)" xlink:href="#D"/></g><path fill="#fff" d="M190-63c-7 42-38 67-86 67-59 0-84-38-90-98-12-110 154-137 174-36l-49 2c-2-19-15-32-35-32-30 0-35 28-38 64-6 74 65 87 74 30" id="N"/><path fill="#fff" d="M88-194c31-1 46 15 58 34l-1-101h50l1 261h-48c-2-10 0-23-3-31C134-8 116 4 84 4 32 4 16-41 15-95c0-56 19-97 73-99zm17 164c33 0 40-30 41-66 1-37-9-64-41-64s-38 30-39 65c0 43 13 65 39 65" id="O"/><g id="g"><use transform="matrix(0.06172839506172839,0,0,0.06172839506172839,0,0)" xlink:href="#N"/><use transform="matrix(0.06172839506172839,0,0,0.06172839506172839,12.345679012345679,0)" xlink:href="#B"/><use transform="matrix(0.06172839506172839,0,0,0.06172839506172839,24.691358024691358,0)" xlink:href="#O"/><use transform="matrix(0.06172839506172839,0,0,0.06172839506172839,38.20987654320987,0)" xlink:href="#B"/><use transform="matrix(0.06172839506172839,0,0,0.06172839506172839,50.55555555555555,0)" xlink:href="#F"/><use transform="matrix(0.06172839506172839,0,0,0.06172839506172839,62.90123456790123,0)" xlink:href="#A"/><use transform="matrix(0.06172839506172839,0,0,0.06172839506172839,70.24691358024691,0)" xlink:href="#H"/><use transform="matrix(0.06172839506172839,0,0,0.06172839506172839,78.88888888888889,0)" xlink:href="#D"/></g><path fill="#333" d="M30 0v-248h187v28H63v79h144v27H63v87h162V0H30" id="P"/><path fill="#333" d="M117-194c89-4 53 116 60 194h-32v-121c0-31-8-49-39-48C34-167 62-67 57 0H25l-1-190h30c1 10-1 24 2 32 11-22 29-35 61-36" id="Q"/><path fill="#333" d="M59-47c-2 24 18 29 38 22v24C64 9 27 4 27-40v-127H5v-23h24l9-43h21v43h35v23H59v120" id="R"/><path fill="#333" d="M114-163C36-179 61-72 57 0H25l-1-190h30c1 12-1 29 2 39 6-27 23-49 58-41v29" id="S"/><path fill="#333" d="M141-36C126-15 110 5 73 4 37 3 15-17 15-53c-1-64 63-63 125-63 3-35-9-54-41-54-24 1-41 7-42 31l-33-3c5-37 33-52 76-52 45 0 72 20 72 64v82c-1 20 7 32 28 27v20c-31 9-61-2-59-35zM48-53c0 20 12 33 32 33 41-3 63-29 60-74-43 2-92-5-92 41" id="T"/><g id="h"><use transform="matrix(0.04938271604938272,0,0,0.04938271604938272,0,0)" xlink:href="#P"/><use transform="matrix(0.04938271604938272,0,0,0.04938271604938272,11.851851851851853,0)" xlink:href="#Q"/><use transform="matrix(0.04938271604938272,0,0,0.04938271604938272,21.7283950617284,0)" xlink:href="#R"/><use transform="matrix(0.04938271604938272,0,0,0.04938271604938272,26.666666666666668,0)" xlink:href="#S"/><use transform="matrix(0.04938271604938272,0,0,0.04938271604938272,32.543209876543216,0)" xlink:href="#T"/><use transform="matrix(0.04938271604938272,0,0,0.04938271604938272,42.41975308641976,0)" xlink:href="#S"/></g><path fill="#333" d="M233-177c-1 41-23 64-60 70L243 0h-38l-65-103H63V0H30v-248c88 3 205-21 203 71zM63-129c60-2 137 13 137-47 0-61-80-42-137-45v92" id="U"/><path fill="#333" d="M100-194c63 0 86 42 84 106H49c0 40 14 67 53 68 26 1 43-12 49-29l28 8c-11 28-37 45-77 45C44 4 14-33 15-96c1-61 26-98 85-98zm52 81c6-60-76-77-97-28-3 7-6 17-6 28h103" id="V"/><path fill="#333" d="M85-194c31 0 48 13 60 33l-1-100h32l1 261h-30c-2-10 0-23-3-31C134-8 116 4 85 4 32 4 16-35 15-94c0-66 23-100 70-100zm9 24c-40 0-46 34-46 75 0 40 6 74 45 74 42 0 51-32 51-76 0-42-9-74-50-73" id="W"/><path fill="#333" d="M101-234c-31-9-42 10-38 44h38v23H63V0H32v-167H5v-23h27c-7-52 17-82 69-68v24" id="X"/><path fill="#333" d="M24-231v-30h32v30H24zM24 0v-190h32V0H24" id="Y"/><g id="i"><use transform="matrix(0.04938271604938272,0,0,0.04938271604938272,0,0)" xlink:href="#U"/><use transform="matrix(0.04938271604938272,0,0,0.04938271604938272,12.790123456790125,0)" xlink:href="#V"/><use transform="matrix(0.04938271604938272,0,0,0.04938271604938272,22.66666666666667,0)" xlink:href="#W"/><use transform="matrix(0.04938271604938272,0,0,0.04938271604938272,32.543209876543216,0)" xlink:href="#V"/><use transform="matrix(0.04938271604938272,0,0,0.04938271604938272,42.41975308641976,0)" xlink:href="#X"/><use transform="matrix(0.04938271604938272,0,0,0.04938271604938272,47.35802469135803,0)" xlink:href="#Y"/><use transform="matrix(0.04938271604938272,0,0,0.04938271604938272,51.25925925925927,0)" xlink:href="#Q"/><use transform="matrix(0.04938271604938272,0,0,0.04938271604938272,61.13580246913581,0)" xlink:href="#Y"/><use transform="matrix(0.04938271604938272,0,0,0.04938271604938272,65.03703703703705,0)" xlink:href="#S"/></g><path fill="#333" d="M135-143c-3-34-86-38-87 0 15 53 115 12 119 90S17 21 10-45l28-5c4 36 97 45 98 0-10-56-113-15-118-90-4-57 82-63 122-42 12 7 21 19 24 35" id="Z"/><path fill="#333" d="M106-169C34-169 62-67 57 0H25v-261h32l-1 103c12-21 28-36 61-36 89 0 53 116 60 194h-32v-121c2-32-8-49-39-48" id="aa"/><g id="j"><use transform="matrix(0.04938271604938272,0,0,0.04938271604938272,0,0)" xlink:href="#Z"/><use transform="matrix(0.04938271604938272,0,0,0.04938271604938272,8.88888888888889,0)" xlink:href="#V"/><use transform="matrix(0.04938271604938272,0,0,0.04938271604938272,18.765432098765434,0)" xlink:href="#Q"/><use transform="matrix(0.04938271604938272,0,0,0.04938271604938272,28.641975308641978,0)" xlink:href="#aa"/><use transform="matrix(0.04938271604938272,0,0,0.04938271604938272,38.51851851851852,0)" xlink:href="#T"/></g><path fill="#333" d="M190 0L58-211 59 0H30v-248h39L202-35l-2-213h31V0h-41" id="ab"/><path fill="#333" d="M100-194c62-1 85 37 85 99 1 63-27 99-86 99S16-35 15-95c0-66 28-99 85-99zM99-20c44 1 53-31 53-75 0-43-8-75-51-75s-53 32-53 75 10 74 51 75" id="ac"/><path fill="#333" d="M210-169c-67 3-38 105-44 169h-31v-121c0-29-5-50-35-48C34-165 62-65 56 0H25l-1-190h30c1 10-1 24 2 32 10-44 99-50 107 0 11-21 27-35 58-36 85-2 47 119 55 194h-31v-121c0-29-5-49-35-48" id="ad"/><g id="k"><use transform="matrix(0.02530864197530864,0,0,0.02530864197530864,0,0)" xlink:href="#ab"/><use transform="matrix(0.02530864197530864,0,0,0.02530864197530864,6.554938271604938,0)" xlink:href="#ac"/><use transform="matrix(0.02530864197530864,0,0,0.02530864197530864,11.616666666666665,0)" xlink:href="#ad"/><use transform="matrix(0.02530864197530864,0,0,0.02530864197530864,19.183950617283948,0)" xlink:href="#V"/></g><path fill="#333" d="M96-169c-40 0-48 33-48 73s9 75 48 75c24 0 41-14 43-38l32 2c-6 37-31 61-74 61-59 0-76-41-82-99-10-93 101-131 147-64 4 7 5 14 7 22l-32 3c-4-21-16-35-41-35" id="ae"/><path fill="#333" d="M115-194c55 1 70 41 70 98S169 2 115 4C84 4 66-9 55-30l1 105H24l-1-265h31l2 30c10-21 28-34 59-34zm-8 174c40 0 45-34 45-75s-6-73-45-74c-42 0-51 32-51 76 0 43 10 73 51 73" id="af"/><path fill="#333" d="M24 0v-261h32V0H24" id="ag"/><g id="l"><use transform="matrix(0.02530864197530864,0,0,0.02530864197530864,0,0)" xlink:href="#ae"/><use transform="matrix(0.02530864197530864,0,0,0.02530864197530864,4.555555555555555,0)" xlink:href="#ac"/><use transform="matrix(0.02530864197530864,0,0,0.02530864197530864,9.617283950617283,0)" xlink:href="#ad"/><use transform="matrix(0.02530864197530864,0,0,0.02530864197530864,17.184567901234566,0)" xlink:href="#af"/><use transform="matrix(0.02530864197530864,0,0,0.02530864197530864,22.246296296296293,0)" xlink:href="#ag"/><use transform="matrix(0.02530864197530864,0,0,0.02530864197530864,24.245679012345676,0)" xlink:href="#V"/><use transform="matrix(0.02530864197530864,0,0,0.02530864197530864,29.307407407407403,0)" xlink:href="#R"/><use transform="matrix(0.02530864197530864,0,0,0.02530864197530864,31.838271604938267,0)" xlink:href="#ac"/></g><g id="m"><use transform="matrix(0.02530864197530864,0,0,0.02530864197530864,0,0)" xlink:href="#P"/><use transform="matrix(0.02530864197530864,0,0,0.02530864197530864,6.0740740740740735,0)" xlink:href="#ad"/><use transform="matrix(0.02530864197530864,0,0,0.02530864197530864,13.641358024691357,0)" xlink:href="#T"/><use transform="matrix(0.02530864197530864,0,0,0.02530864197530864,18.703086419753085,0)" xlink:href="#Y"/><use transform="matrix(0.02530864197530864,0,0,0.02530864197530864,20.702469135802467,0)" xlink:href="#ag"/></g><path fill="#333" d="M212-179c-10-28-35-45-73-45-59 0-87 40-87 99 0 60 29 101 89 101 43 0 62-24 78-52l27 14C228-24 195 4 139 4 59 4 22-46 18-125c-6-104 99-153 187-111 19 9 31 26 39 46" id="ah"/><path fill="#333" d="M30-248c87 1 191-15 191 75 0 78-77 80-158 76V0H30v-248zm33 125c57 0 124 11 124-50 0-59-68-47-124-48v98" id="ai"/><path fill="#333" d="M63-220v92h138v28H63V0H30v-248h175v28H63" id="aj"/><g id="n"><use transform="matrix(0.02530864197530864,0,0,0.02530864197530864,0,0)" xlink:href="#ah"/><use transform="matrix(0.02530864197530864,0,0,0.02530864197530864,6.554938271604938,0)" xlink:href="#ai"/><use transform="matrix(0.02530864197530864,0,0,0.02530864197530864,12.629012345679012,0)" xlink:href="#aj"/></g><path fill="#333" d="M30-248c118-7 216 8 213 122C240-48 200 0 122 0H30v-248zM63-27c89 8 146-16 146-99s-60-101-146-95v194" id="ak"/><g id="o"><use transform="matrix(0.02530864197530864,0,0,0.02530864197530864,0,0)" xlink:href="#ak"/><use transform="matrix(0.02530864197530864,0,0,0.02530864197530864,6.554938271604938,0)" xlink:href="#T"/><use transform="matrix(0.02530864197530864,0,0,0.02530864197530864,11.616666666666665,0)" xlink:href="#R"/><use transform="matrix(0.02530864197530864,0,0,0.02530864197530864,14.14753086419753,0)" xlink:href="#T"/></g><g id="p"><use transform="matrix(0.02530864197530864,0,0,0.02530864197530864,0,0)" xlink:href="#W"/><use transform="matrix(0.02530864197530864,0,0,0.02530864197530864,5.061728395061728,0)" xlink:href="#V"/></g><g id="q"><use transform="matrix(0.02530864197530864,0,0,0.02530864197530864,0,0)" xlink:href="#Q"/><use transform="matrix(0.02530864197530864,0,0,0.02530864197530864,5.061728395061728,0)" xlink:href="#T"/><use transform="matrix(0.02530864197530864,0,0,0.02530864197530864,10.123456790123456,0)" xlink:href="#Z"/><use transform="matrix(0.02530864197530864,0,0,0.02530864197530864,14.679012345679011,0)" xlink:href="#ae"/><use transform="matrix(0.02530864197530864,0,0,0.02530864197530864,19.234567901234566,0)" xlink:href="#Y"/><use transform="matrix(0.02530864197530864,0,0,0.02530864197530864,21.23395061728395,0)" xlink:href="#ad"/><use transform="matrix(0.02530864197530864,0,0,0.02530864197530864,28.801234567901233,0)" xlink:href="#V"/><use transform="matrix(0.02530864197530864,0,0,0.02530864197530864,33.86296296296296,0)" xlink:href="#Q"/><use transform="matrix(0.02530864197530864,0,0,0.02530864197530864,38.92469135802469,0)" xlink:href="#R"/><use transform="matrix(0.02530864197530864,0,0,0.02530864197530864,41.45555555555555,0)" xlink:href="#ac"/></g><path fill="#333" d="M84 4C-5 8 30-112 23-190h32v120c0 31 7 50 39 49 72-2 45-101 50-169h31l1 190h-30c-1-10 1-25-2-33-11 22-28 36-60 37" id="al"/><g id="r"><use transform="matrix(0.02530864197530864,0,0,0.02530864197530864,0,0)" xlink:href="#ah"/><use transform="matrix(0.02530864197530864,0,0,0.02530864197530864,6.554938271604938,0)" xlink:href="#V"/><use transform="matrix(0.02530864197530864,0,0,0.02530864197530864,11.616666666666665,0)" xlink:href="#ag"/><use transform="matrix(0.02530864197530864,0,0,0.02530864197530864,13.616049382716048,0)" xlink:href="#al"/><use transform="matrix(0.02530864197530864,0,0,0.02530864197530864,18.677777777777777,0)" xlink:href="#ag"/><use transform="matrix(0.02530864197530864,0,0,0.02530864197530864,20.67716049382716,0)" xlink:href="#T"/><use transform="matrix(0.02530864197530864,0,0,0.02530864197530864,25.738888888888887,0)" xlink:href="#S"/></g><path fill="#333" d="M185-189c-5-48-123-54-124 2 14 75 158 14 163 119 3 78-121 87-175 55-17-10-28-26-33-46l33-7c5 56 141 63 141-1 0-78-155-14-162-118-5-82 145-84 179-34 5 7 8 16 11 25" id="am"/><path fill="#333" d="M141 0L90-78 38 0H4l68-98-65-92h35l48 74 47-74h35l-64 92 68 98h-35" id="an"/><g id="s"><use transform="matrix(0.02530864197530864,0,0,0.02530864197530864,0,0)" xlink:href="#am"/><use transform="matrix(0.02530864197530864,0,0,0.02530864197530864,6.0740740740740735,0)" xlink:href="#V"/><use transform="matrix(0.02530864197530864,0,0,0.02530864197530864,11.1358024691358,0)" xlink:href="#an"/><use transform="matrix(0.02530864197530864,0,0,0.02530864197530864,15.691358024691356,0)" xlink:href="#ac"/></g><g id="t"><use transform="matrix(0.02530864197530864,0,0,0.02530864197530864,0,0)" xlink:href="#am"/><use transform="matrix(0.02530864197530864,0,0,0.02530864197530864,6.0740740740740735,0)" xlink:href="#V"/><use transform="matrix(0.02530864197530864,0,0,0.02530864197530864,11.1358024691358,0)" xlink:href="#Q"/><use transform="matrix(0.02530864197530864,0,0,0.02530864197530864,16.197530864197528,0)" xlink:href="#aa"/><use transform="matrix(0.02530864197530864,0,0,0.02530864197530864,21.259259259259256,0)" xlink:href="#T"/></g><g id="u"><use transform="matrix(0.02530864197530864,0,0,0.02530864197530864,0,0)" xlink:href="#ah"/><use transform="matrix(0.02530864197530864,0,0,0.02530864197530864,6.554938271604938,0)" xlink:href="#ac"/><use transform="matrix(0.02530864197530864,0,0,0.02530864197530864,11.616666666666665,0)" xlink:href="#Q"/><use transform="matrix(0.02530864197530864,0,0,0.02530864197530864,16.678395061728395,0)" xlink:href="#X"/><use transform="matrix(0.02530864197530864,0,0,0.02530864197530864,19.20925925925926,0)" xlink:href="#Y"/><use transform="matrix(0.02530864197530864,0,0,0.02530864197530864,21.20864197530864,0)" xlink:href="#S"/><use transform="matrix(0.02530864197530864,0,0,0.02530864197530864,24.220370370370368,0)" xlink:href="#ad"/><use transform="matrix(0.02530864197530864,0,0,0.02530864197530864,31.787654320987652,0)" xlink:href="#T"/><use transform="matrix(0.02530864197530864,0,0,0.02530864197530864,36.84938271604938,0)" xlink:href="#S"/></g><g id="v"><use transform="matrix(0.02530864197530864,0,0,0.02530864197530864,0,0)" xlink:href="#Z"/><use transform="matrix(0.02530864197530864,0,0,0.02530864197530864,4.555555555555555,0)" xlink:href="#V"/><use transform="matrix(0.02530864197530864,0,0,0.02530864197530864,9.617283950617283,0)" xlink:href="#Q"/><use transform="matrix(0.02530864197530864,0,0,0.02530864197530864,14.679012345679011,0)" xlink:href="#aa"/><use transform="matrix(0.02530864197530864,0,0,0.02530864197530864,19.74074074074074,0)" xlink:href="#T"/></g><path fill="#6e757d" d="M1065-1013c47 164 49 500-1 665C999-130 875 20 611 20c-377 0-484-300-487-695-2-245 41-425 141-551 77-98 191-144 352-144 261 0 386 140 448 357zM741-155c199-92 203-504 159-785-26-168-96-284-283-284-281 0-308 256-311 549-2 181 18 324 80 428 46 77 115 118 227 120 47 0 90-10 128-28" id="ao"/><path fill="#6e757d" d="M114 20l821-1504h178L296 20H114" id="ap"/><g id="w"><use transform="matrix(0.0033637152777777775,0,0,0.0033637152777777775,0,0)" xlink:href="#ao"/><use transform="matrix(0.0033637152777777775,0,0,0.0033637152777777775,4.134006076388888,0)" xlink:href="#ao"/><use transform="matrix(0.0033637152777777775,0,0,0.0033637152777777775,8.268012152777777,0)" xlink:href="#ap"/><use transform="matrix(0.0033637152777777775,0,0,0.0033637152777777775,12.402018229166664,0)" xlink:href="#ao"/><use transform="matrix(0.0033637152777777775,0,0,0.0033637152777777775,16.536024305555554,0)" xlink:href="#ao"/><use transform="matrix(0.0033637152777777775,0,0,0.0033637152777777775,20.670030381944443,0)" xlink:href="#ap"/><use transform="matrix(0.0033637152777777775,0,0,0.0033637152777777775,24.804036458333332,0)" xlink:href="#ao"/><use transform="matrix(0.0033637152777777775,0,0,0.0033637152777777775,28.93804253472222,0)" xlink:href="#ao"/><use transform="matrix(0.0033637152777777775,0,0,0.0033637152777777775,33.07204861111111,0)" xlink:href="#ao"/><use transform="matrix(0.0033637152777777775,0,0,0.0033637152777777775,37.20605468749999,0)" xlink:href="#ao"/></g><path fill="#6e757d" d="M496 0v-299h235V0H496" id="aq"/><path fill="#6e757d" d="M334-464v-160h560v160H334" id="ar"/><g id="x"><use transform="matrix(0.0033637152777777775,0,0,0.0033637152777777775,0,0)" xlink:href="#ao"/><use transform="matrix(0.0033637152777777775,0,0,0.0033637152777777775,4.134006076388888,0)" xlink:href="#ao"/><use transform="matrix(0.0033637152777777775,0,0,0.0033637152777777775,8.268012152777777,0)" xlink:href="#ao"/><use transform="matrix(0.0033637152777777775,0,0,0.0033637152777777775,12.402018229166664,0)" xlink:href="#aq"/><use transform="matrix(0.0033637152777777775,0,0,0.0033637152777777775,16.536024305555554,0)" xlink:href="#ao"/><use transform="matrix(0.0033637152777777775,0,0,0.0033637152777777775,20.670030381944443,0)" xlink:href="#ao"/><use transform="matrix(0.0033637152777777775,0,0,0.0033637152777777775,24.804036458333332,0)" xlink:href="#ao"/><use transform="matrix(0.0033637152777777775,0,0,0.0033637152777777775,28.93804253472222,0)" xlink:href="#aq"/><use transform="matrix(0.0033637152777777775,0,0,0.0033637152777777775,33.07204861111111,0)" xlink:href="#ao"/><use transform="matrix(0.0033637152777777775,0,0,0.0033637152777777775,37.20605468749999,0)" xlink:href="#ao"/><use transform="matrix(0.0033637152777777775,0,0,0.0033637152777777775,41.34006076388888,0)" xlink:href="#ao"/><use transform="matrix(0.0033637152777777775,0,0,0.0033637152777777775,45.474066840277764,0)" xlink:href="#ar"/><use transform="matrix(0.0033637152777777775,0,0,0.0033637152777777775,49.60807291666665,0)" xlink:href="#ao"/><use transform="matrix(0.0033637152777777775,0,0,0.0033637152777777775,53.742078993055536,0)" xlink:href="#ao"/></g></defs></g></svg>